<svg xmlns="http://www.w3.org/2000/svg" width="29.466" height="28.793" viewBox="0 0 29.466 28.793"><defs><style>.a{fill:#ff8316;}.b,.c{fill:#fff;}.b{stroke:#fff;stroke-width:0.5px;}.c{opacity:0.29;}</style></defs><g transform="translate(-146 -541.207)"><g transform="translate(146.089 545.478)"><ellipse class="a" cx="11.5" cy="12.5" rx="11.5" ry="12.5" transform="translate(-0.089 -0.478)"/><g transform="translate(1.97 11.343) rotate(-43)"><path class="b" d="M.284,10.049l3.871,3.874a.991.991,0,0,0,1.369,0l1.29-1.291a.969.969,0,0,0,0-1.37l-.039-.039a8.313,8.313,0,0,1,4.517-1.537.323.323,0,0,0,.31-.234L14.185.411a.323.323,0,0,0-.4-.4L4.751,2.6a.323.323,0,0,0-.234.311,8.326,8.326,0,0,1-1.536,4.52l-.038-.038a.967.967,0,0,0-1.369,0L.284,8.678a.969.969,0,0,0,0,1.37Zm4.874-6.9L12.766.975,9.041,4.7a1.277,1.277,0,0,0-.652-.183A1.291,1.291,0,1,0,9.68,5.808a1.277,1.277,0,0,0-.18-.651l3.725-3.725L11.049,9.039a9.137,9.137,0,0,0-4.736,1.713L3.445,7.884A9.137,9.137,0,0,0,5.158,3.149ZM9.035,5.808a.645.645,0,1,1-.645-.645.645.645,0,0,1,.645.645ZM.74,9.129,2.031,7.838a.33.33,0,0,1,.456,0L6.359,11.71a.323.323,0,0,1,0,.456L5.068,13.458a.323.323,0,0,1-.456,0L.74,9.586h0a.323.323,0,0,1,0-.456Z"/></g></g><path class="c" d="M9.557,0A9.557,9.557,0,1,1,0,9.557,9.557,9.557,0,0,1,9.557,0Z" transform="translate(156.352 541.207)"/></g></svg>