<svg xmlns="http://www.w3.org/2000/svg" width="38.883" height="37.536" viewBox="0 0 38.883 37.536"><defs><style>.a{fill:#ff8316;}.b,.c{fill:#fff;}.b{opacity:0.29;}</style></defs><g transform="translate(-967 -833.464)"><g transform="translate(967.15 833.464)"><g transform="translate(0)"><g transform="translate(0 5.195)"><ellipse class="a" cx="17" cy="16" rx="17" ry="16" transform="translate(-0.15 0.342)"/></g><path class="b" d="M13.377,0A13.377,13.377,0,1,1,0,13.377,13.377,13.377,0,0,1,13.377,0Z" transform="translate(11.979)"/></g><path class="c" d="M11.826,11.483l.567-3.694H8.848v-2.4a1.847,1.847,0,0,1,2.083-2h1.612V.25A19.653,19.653,0,0,0,9.682,0C6.763,0,4.855,1.769,4.855,4.973V7.788H1.609v3.694H4.855v8.931H8.848V11.483Z" transform="translate(9.588 11.402)"/></g></g></svg>