<svg xmlns="http://www.w3.org/2000/svg" width="24.121" height="26.586" viewBox="0 0 24.121 26.586"><defs><style>.a{opacity:0.47;}.b{fill:none;stroke:#000;stroke-linecap:round;stroke-linejoin:round;stroke-width:1.7px;}</style></defs><g class="a" transform="translate(-0.3 -0.3)"><path class="b" d="M18.224,19.231a10.2,10.2,0,0,1-5.864,1.955c-6.911,0-10.86-7.593-10.86-7.593a17.715,17.715,0,0,1,5-5.638m3.791-1.727A9.35,9.35,0,0,1,12.36,6c6.911,0,10.86,7.593,10.86,7.593a17.538,17.538,0,0,1-2.133,3.028M14.453,15.6a3.039,3.039,0,0,1-2.9.818,2.907,2.907,0,0,1-2.137-2.054,2.777,2.777,0,0,1,.851-2.788" transform="translate(0 0)"/><path class="b" d="M1.5,1.5,23.22,25.686" transform="translate(0 0)"/></g></svg>