<svg xmlns="http://www.w3.org/2000/svg" width="38.295" height="37.536" viewBox="0 0 38.295 37.536"><defs><style>.a{fill:#ff8316;}.b,.c{fill:#fff;}.b{opacity:0.29;}</style></defs><g transform="translate(-913 -833.464)"><g transform="translate(912.563 833.464)"><g transform="translate(0)"><g transform="translate(0 5.195)"><ellipse class="a" cx="16.5" cy="16" rx="16.5" ry="16" transform="translate(0.438 0.342)"/></g><path class="b" d="M13.377,0A13.377,13.377,0,1,1,0,13.377,13.377,13.377,0,0,1,13.377,0Z" transform="translate(11.979)"/></g></g><path class="c" d="M17.994,9.921c0,5.218-3.573,8.931-8.85,8.931a9.145,9.145,0,0,1,0-18.289,8.794,8.794,0,0,1,6.132,2.393L12.788,5.349c-3.256-3.142-9.31-.782-9.31,4.358a5.728,5.728,0,0,0,5.667,5.774,4.945,4.945,0,0,0,5.192-3.942H9.145V8.394H17.85A8.016,8.016,0,0,1,17.994,9.921Z" transform="translate(920.961 844.589)"/></g></svg>