<svg xmlns="http://www.w3.org/2000/svg" width="27.672" height="26.201" viewBox="0 0 27.672 26.201"><defs><style>.a{fill:#ff8316;}.b,.c{fill:#fff;}.b{stroke:#fff;stroke-linecap:round;stroke-linejoin:round;stroke-width:0.3px;}.c{opacity:0.29;}</style></defs><g transform="translate(-57 -604.799)"><g transform="translate(56.869 607.593)"><ellipse class="a" cx="12" cy="11.5" rx="12" ry="11.5" transform="translate(0.131 0.407)"/><path class="b" d="M-15.514-20.884a.215.215,0,0,1-.021.1.162.162,0,0,1-.09.069.775.775,0,0,1-.195.042,3.164,3.164,0,0,1-.334.014,2.545,2.545,0,0,1-.3-.014.647.647,0,0,1-.184-.045.253.253,0,0,1-.108-.087.555.555,0,0,1-.066-.139l-.827-2.12q-.146-.361-.3-.664a2.134,2.134,0,0,0-.372-.521,1.528,1.528,0,0,0-.507-.341,1.822,1.822,0,0,0-.7-.122h-.8v3.829a.158.158,0,0,1-.031.1.207.207,0,0,1-.1.066.958.958,0,0,1-.181.042,1.98,1.98,0,0,1-.288.017,1.98,1.98,0,0,1-.288-.017,1.053,1.053,0,0,1-.184-.042.186.186,0,0,1-.1-.066.171.171,0,0,1-.028-.1V-29.21a.447.447,0,0,1,.142-.379.493.493,0,0,1,.3-.108h1.911q.341,0,.566.017t.407.038a3.438,3.438,0,0,1,.921.285,2.183,2.183,0,0,1,.671.493,1.99,1.99,0,0,1,.407.685,2.554,2.554,0,0,1,.136.851,2.509,2.509,0,0,1-.122.81,1.959,1.959,0,0,1-.351.632,2.323,2.323,0,0,1-.549.476,3.526,3.526,0,0,1-.716.341,1.694,1.694,0,0,1,.4.247,2.082,2.082,0,0,1,.337.358,3.333,3.333,0,0,1,.3.48q.139.271.278.612l.806,1.981a3.2,3.2,0,0,1,.125.351A.635.635,0,0,1-15.514-20.884Zm-1.8-6.317a1.609,1.609,0,0,0-.236-.893,1.335,1.335,0,0,0-.792-.525,2.255,2.255,0,0,0-.393-.069q-.219-.021-.573-.021h-1.008v3.03h1.168a2.591,2.591,0,0,0,.817-.115,1.613,1.613,0,0,0,.573-.32,1.243,1.243,0,0,0,.337-.483,1.659,1.659,0,0,0,.107-.6Zm9.366,3.1a5.633,5.633,0,0,1-.177,1.473,3.213,3.213,0,0,1-.521,1.108,2.332,2.332,0,0,1-.851.7,2.621,2.621,0,0,1-1.161.247,2.244,2.244,0,0,1-.514-.056,1.967,1.967,0,0,1-.462-.174,2.693,2.693,0,0,1-.448-.3q-.222-.181-.473-.424V-18.4a.171.171,0,0,1-.028.1.2.2,0,0,1-.09.069.635.635,0,0,1-.174.042,2.378,2.378,0,0,1-.285.014,2.3,2.3,0,0,1-.278-.014.688.688,0,0,1-.177-.042.181.181,0,0,1-.09-.069.19.19,0,0,1-.024-.1v-8.736a.21.21,0,0,1,.021-.1.168.168,0,0,1,.08-.064.54.54,0,0,1,.16-.038,2.268,2.268,0,0,1,.236-.01,2.248,2.248,0,0,1,.24.01.533.533,0,0,1,.156.038.191.191,0,0,1,.087.066.185.185,0,0,1,.024.1v.841a6.645,6.645,0,0,1,.549-.507,3.293,3.293,0,0,1,.532-.358,2.5,2.5,0,0,1,.549-.215,2.359,2.359,0,0,1,.594-.073,2.374,2.374,0,0,1,1.161.264,2.187,2.187,0,0,1,.782.723,3.226,3.226,0,0,1,.441,1.067A5.773,5.773,0,0,1-7.948-24.1Zm-1.188.132A5.734,5.734,0,0,0-9.21-24.9a2.683,2.683,0,0,0-.252-.8,1.49,1.49,0,0,0-.479-.556,1.282,1.282,0,0,0-.748-.208,1.5,1.5,0,0,0-.441.066,1.8,1.8,0,0,0-.44.208,3.136,3.136,0,0,0-.469.375,5.779,5.779,0,0,0-.517.573v2.488a4.974,4.974,0,0,0,.9.883,1.513,1.513,0,0,0,.9.306,1.306,1.306,0,0,0,.745-.208,1.573,1.573,0,0,0,.5-.556,2.784,2.784,0,0,0,.283-.778,4.2,4.2,0,0,0,.1-.863Z" transform="translate(26.525 35.407)"/></g><path class="c" d="M9.557,0A9.557,9.557,0,1,1,0,9.557,9.557,9.557,0,0,1,9.557,0Z" transform="translate(65.558 604.799)"/></g></svg>