<svg xmlns="http://www.w3.org/2000/svg" xmlns:xlink="http://www.w3.org/1999/xlink" width="77" height="76" viewBox="0 0 77 76"><defs><style>.a{fill:#f84b0a;}.b{opacity:0.8;}.c{fill:#ff7214;opacity:0.55;}.d{opacity:0.57;}.e{fill:#f60;}.f{fill:none;stroke:#fff;stroke-linecap:round;stroke-linejoin:round;}.g{clip-path:url(#a);}.h{fill:#fff;opacity:0.2;}</style><clipPath id="a"><path class="a" d="M28.765,0A28.765,28.765,0,1,1,0,28.765,28.765,28.765,0,0,1,28.765,0Z"/></clipPath></defs><g class="b"><ellipse class="c" cx="38.5" cy="38" rx="38.5" ry="38"/><g transform="translate(9 10)"><g class="d"><path class="e" d="M28.765,0A28.765,28.765,0,1,1,0,28.765,28.765,28.765,0,0,1,28.765,0Z"/><path class="e" d="M28.765,0A28.765,28.765,0,1,1,0,28.765,28.765,28.765,0,0,1,28.765,0Z"/></g><g transform="translate(20.283 15.489)"><path class="f" d="M24.44,9.97A8.47,8.47,0,1,1,15.97,1.5a8.47,8.47,0,0,1,8.47,8.47Z" transform="translate(-7.5 -1.5)"/><path class="f" d="M11.964,20.832,10.5,31.855l6.05-3.63,6.05,3.63L21.136,20.82" transform="translate(-8.08 -5.235)"/><path class="f" d="M8.532,3l1.709,3.463,3.822.559L11.3,9.716l.653,3.806-3.419-1.8-3.419,1.8.653-3.806L3,7.022l3.822-.559Z" transform="translate(0.108 -0.114)"/></g><g class="g"><circle class="h" cx="19.73" cy="19.73" r="19.73" transform="translate(25.815 -4.057)"/></g></g></g></svg>