<svg xmlns="http://www.w3.org/2000/svg" xmlns:xlink="http://www.w3.org/1999/xlink" width="77" height="76" viewBox="0 0 77 76"><defs><style>.a{fill:#ff8316;}.b{opacity:0.03;}.c,.e{fill:#fff;}.c{stroke:#fff;}.d{clip-path:url(#a);}.e{opacity:0.29;}</style><clipPath id="a"><circle class="a" cx="25" cy="25" r="25" transform="translate(-0.388 0.113)"/></clipPath></defs><g transform="translate(-60 -1269)"><g transform="translate(17 -22.5)"><ellipse class="b" cx="38.5" cy="38" rx="38.5" ry="38" transform="translate(43 1291.5)"/><g transform="translate(56.388 1304.387)"><circle class="a" cx="25" cy="25" r="25" transform="translate(-0.388 0.113)"/></g><path class="c" d="M28.149,15.483a2.829,2.829,0,0,0,.662-1.891,2.9,2.9,0,0,0-.619-1.638,2.545,2.545,0,0,0-.6-2.929,5.259,5.259,0,0,0-3.824-.914,14.946,14.946,0,0,0-2.343.3h0c-.238.043-.491.1-.748.152a8.308,8.308,0,0,1,.6-2.767c.667-2.029.629-3.581-.124-4.62A3.027,3.027,0,0,0,18.714,0,1.2,1.2,0,0,0,17.8.419a3.2,3.2,0,0,0-.4,2.272C16.766,4.377,15,8.51,13.514,9.658a.51.51,0,0,0-.076.067,5.116,5.116,0,0,0-.933,1.4,1.965,1.965,0,0,0-.943-.238H8.656a1.983,1.983,0,0,0-1.981,1.981v7.739a1.983,1.983,0,0,0,1.981,1.981h2.9a1.977,1.977,0,0,0,1.143-.362l1.119.133a47.949,47.949,0,0,0,6.348.348c.567.043,1.1.067,1.6.067a10.686,10.686,0,0,0,2.215-.2,4.141,4.141,0,0,0,2.957-1.838,2.915,2.915,0,0,0,.324-1.824,3.038,3.038,0,0,0,1.081-2.472,3.217,3.217,0,0,0-.2-.957ZM8.656,21.3a.7.7,0,0,1-.7-.7V12.863a.7.7,0,0,1,.7-.7h2.9a.7.7,0,0,1,.7.7V20.6a.7.7,0,0,1-.7.7h-2.9Zm18.273-6.377a.64.64,0,0,0-.086.776,1.981,1.981,0,0,1,.219.8,1.906,1.906,0,0,1-.9,1.648.649.649,0,0,0-.219.733,1.682,1.682,0,0,1-.129,1.229,2.979,2.979,0,0,1-2.1,1.21,12.546,12.546,0,0,1-3.472.1h-.067a47.008,47.008,0,0,1-6.191-.338h0l-.481-.057a2.018,2.018,0,0,0,.043-.419V12.863a2.015,2.015,0,0,0-.09-.591,3.98,3.98,0,0,1,.886-1.634c2.138-1.7,4.229-7.415,4.319-7.663a.6.6,0,0,0,.029-.319,2.976,2.976,0,0,1,.062-1.381,1.709,1.709,0,0,1,1.343.643c.486.671.467,1.872-.057,3.462-.8,2.424-.867,3.7-.233,4.262a1.038,1.038,0,0,0,1.038.186c.291-.067.567-.124.829-.167l.062-.014c1.462-.319,4.081-.514,4.991.314a1.37,1.37,0,0,1,.162,1.738A.637.637,0,0,0,27,12.53a1.8,1.8,0,0,1,.529,1.11,1.769,1.769,0,0,1-.6,1.285Z" transform="translate(63.419 1317.775)"/><g class="d" transform="translate(56.388 1304.387)"><circle class="e" cx="17" cy="17" r="17" transform="translate(22.612 -3.887)"/></g></g></g></svg>