<svg xmlns="http://www.w3.org/2000/svg" width="27.672" height="26.793" viewBox="0 0 27.672 26.793"><defs><style>.a{fill:#ff8316;}.b,.c{fill:#fff;}.b{stroke:#fff;stroke-linecap:round;stroke-linejoin:round;}.c{opacity:0.29;}</style></defs><g transform="translate(-57 -541.207)"><g transform="translate(56.869 545.101)"><ellipse class="a" cx="12" cy="11.5" rx="12" ry="11.5" transform="translate(0.131 -0.101)"/><path class="b" d="M-46.616-16q.44.05.817.075t.636.025a2.064,2.064,0,0,0,.951-.161.547.547,0,0,0,.288-.515,3,3,0,0,0-.064-.54q-.064-.331-.175-.731t-.256-.842q-.145-.443-.309-.874h.754q.254.758.429,1.4t.306,1.228q.032.145.086.32a1.251,1.251,0,0,0,.157.327.89.89,0,0,0,.261.254.734.734,0,0,0,.4.1v.758h-.1a1.185,1.185,0,0,1-.293-.036.946.946,0,0,1-.27-.116.9.9,0,0,1-.229-.209,1.134,1.134,0,0,1-.17-.315h-.023a1.108,1.108,0,0,1-.3.34,1.644,1.644,0,0,1-.411.22,2.234,2.234,0,0,1-.493.118,4.3,4.3,0,0,1-.547.034q-.263,0-.613-.027t-.69-.073Zm9.858.831h-.1a1.325,1.325,0,0,1-.665-.145.949.949,0,0,1-.388-.44h-.023a1.6,1.6,0,0,1-.511.422,1.569,1.569,0,0,1-.747.163,1.892,1.892,0,0,1-.456-.054,2.346,2.346,0,0,1-.418-.145,2.3,2.3,0,0,1-.368-.211,2.35,2.35,0,0,1-.306-.256,1.361,1.361,0,0,1-.588.515,1.921,1.921,0,0,1-.779.152h-.086a.268.268,0,0,1-.238-.118.461.461,0,0,1-.079-.263.451.451,0,0,1,.079-.261.27.27,0,0,1,.238-.116h.118a1.024,1.024,0,0,0,.483-.1,1.165,1.165,0,0,0,.329-.252,1.361,1.361,0,0,0,.211-.311q.079-.163.129-.286.059-.141.134-.306a3.265,3.265,0,0,1,.172-.329,2.332,2.332,0,0,1,.225-.313A1.633,1.633,0,0,1-40.1-18.1a1.34,1.34,0,0,1,.372-.186,1.5,1.5,0,0,1,.468-.068,1.647,1.647,0,0,1,.617.1,1.477,1.477,0,0,1,.44.268,1.537,1.537,0,0,1,.3.359,2.079,2.079,0,0,1,.179.379,2.349,2.349,0,0,1,.091.329q.027.145.036.209.018.15.048.291a.607.607,0,0,0,.113.25.576.576,0,0,0,.243.175,1.168,1.168,0,0,0,.436.066Zm-3.686-1.248a1.2,1.2,0,0,0,.517.363,1.99,1.99,0,0,0,.713.123,1.218,1.218,0,0,0,.665-.154.519.519,0,0,0,.238-.468,1.1,1.1,0,0,0-.059-.334,1.115,1.115,0,0,0-.179-.34,1.02,1.02,0,0,0-.306-.263.861.861,0,0,0-.436-.107.9.9,0,0,0-.4.086,1.026,1.026,0,0,0-.32.243,1.643,1.643,0,0,0-.247.372,3.256,3.256,0,0,0-.186.477Zm3.825,1.248a.268.268,0,0,1-.238-.118.461.461,0,0,1-.079-.263.451.451,0,0,1,.079-.261.27.27,0,0,1,.238-.116h.268a4.459,4.459,0,0,0,1.067-.125,6.238,6.238,0,0,0,.978-.327,8.141,8.141,0,0,0,.9-.456q.434-.254.842-.513v-.023q-.259-.123-.477-.243a4.48,4.48,0,0,0-.454-.218,3.053,3.053,0,0,0-.517-.159,3.225,3.225,0,0,0-.676-.061,4.1,4.1,0,0,0-.64.045,3.64,3.64,0,0,0-.517.118V-18.6a3.947,3.947,0,0,1,.549-.134,3.815,3.815,0,0,1,.654-.052A2.845,2.845,0,0,1-34-18.72a3.52,3.52,0,0,1,.522.163q.241.1.461.211t.458.213a3.484,3.484,0,0,0,.515.168,2.8,2.8,0,0,0,.631.073l-.145.908a1.564,1.564,0,0,0-.327.129q-.182.093-.4.225a1.116,1.116,0,0,0,.05.329.428.428,0,0,0,.166.218.825.825,0,0,0,.334.12,3.383,3.383,0,0,0,.549.036v.758h-.091A2.383,2.383,0,0,1-32-15.263a1.184,1.184,0,0,1-.452-.252.872.872,0,0,1-.236-.37,1.67,1.67,0,0,1-.077-.452q-.327.2-.715.4a7.092,7.092,0,0,1-.842.377,6.712,6.712,0,0,1-.969.279,5.292,5.292,0,0,1-1.1.109Zm5.573,0a.268.268,0,0,1-.238-.118.461.461,0,0,1-.079-.263.451.451,0,0,1,.079-.261.27.27,0,0,1,.238-.116h.118a1.024,1.024,0,0,0,.483-.1,1.2,1.2,0,0,0,.331-.252A1.27,1.27,0,0,0-29.9-16.6q.077-.163.127-.281.091-.213.216-.472a2.218,2.218,0,0,1,.315-.481,1.639,1.639,0,0,1,.465-.372,1.371,1.371,0,0,1,.665-.15,1.537,1.537,0,0,1,.756.175,1.623,1.623,0,0,1,.515.438,1.848,1.848,0,0,1,.3.567,1.9,1.9,0,0,1,.1.567,1.481,1.481,0,0,1-.1.527,1.335,1.335,0,0,1-.293.461,1.442,1.442,0,0,1-.488.325,1.772,1.772,0,0,1-.688.123,2.07,2.07,0,0,1-.47-.052,2.257,2.257,0,0,1-.424-.143,2.258,2.258,0,0,1-.37-.211,2.385,2.385,0,0,1-.311-.261,1.357,1.357,0,0,1-.59.515,1.926,1.926,0,0,1-.776.152Zm1.748-1.248a1.2,1.2,0,0,0,.515.361,1.963,1.963,0,0,0,.71.125,1.23,1.23,0,0,0,.667-.154.522.522,0,0,0,.241-.472,1.081,1.081,0,0,0-.059-.331,1.121,1.121,0,0,0-.179-.338,1.02,1.02,0,0,0-.306-.263.871.871,0,0,0-.44-.107.873.873,0,0,0-.4.091,1.1,1.1,0,0,0-.32.252,1.587,1.587,0,0,0-.245.377,3.6,3.6,0,0,0-.186.457Z" transform="translate(48.219 28.335)"/></g><path class="c" d="M9.557,0A9.557,9.557,0,1,1,0,9.557,9.557,9.557,0,0,1,9.557,0Z" transform="translate(65.558 541.207)"/></g></svg>