<svg xmlns="http://www.w3.org/2000/svg" width="28.302" height="26.888" viewBox="0 0 28.302 26.888"><defs><style>.a{fill:#ff8316;}.b,.c{fill:#fff;}.b{stroke:#fff;stroke-linecap:round;stroke-width:0.5px;}.c{opacity:0.29;}</style></defs><g transform="translate(-242 -490.112)"><g transform="translate(241.709 495.033)"><ellipse class="a" cx="11.5" cy="11" rx="11.5" ry="11" transform="translate(0.291 -0.033)"/><path class="b" d="M10.49-14.84a5.429,5.429,0,0,0,.041.709,1.315,1.315,0,0,0,.171.518.82.82,0,0,0,.368.321,1.524,1.524,0,0,0,.628.109,1.5,1.5,0,0,0,.478-.075,1.075,1.075,0,0,0,.392-.229,1.054,1.054,0,0,0,.263-.392,1.542,1.542,0,0,0,.1-.573V-21.73H13.99v7.33a2.809,2.809,0,0,1-.2,1.146,1.937,1.937,0,0,1-.536.727,1.952,1.952,0,0,1-.75.379,3.334,3.334,0,0,1-.842.109,2.332,2.332,0,0,1-1.109-.218,1.355,1.355,0,0,1-.59-.621H9.931a2.007,2.007,0,0,1-.829.634,2.578,2.578,0,0,1-.993.2,2.972,2.972,0,0,1-.723-.085,1.965,1.965,0,0,1-.614-.266,1.775,1.775,0,0,1-.471-.46,1.949,1.949,0,0,1-.293-.675,2.539,2.539,0,0,1-.628.157,5.13,5.13,0,0,1-.621.041,3.686,3.686,0,0,1-.9-.109,2.292,2.292,0,0,1-.767-.345,1.725,1.725,0,0,1-.532-.6,1.867,1.867,0,0,1-.2-.894,2.163,2.163,0,0,1,.3-1.139,2.845,2.845,0,0,1,.8-.853,4.546,4.546,0,0,1,1.139-.58,7.2,7.2,0,0,1,1.33-.327v-.662H6.99v4a4.839,4.839,0,0,0,.048.727,1.366,1.366,0,0,0,.177.518.791.791,0,0,0,.362.31,1.5,1.5,0,0,0,.6.1,1.462,1.462,0,0,0,.416-.065,1.152,1.152,0,0,0,.4-.215,1.192,1.192,0,0,0,.307-.392,1.311,1.311,0,0,0,.123-.6v-6.256H10.49Zm-7.108-.546a.781.781,0,0,0,.119.44.9.9,0,0,0,.324.293,1.532,1.532,0,0,0,.471.16,3.123,3.123,0,0,0,.553.048,4.763,4.763,0,0,0,.556-.034,2.738,2.738,0,0,0,.522-.109v-2.551a6.57,6.57,0,0,0-.986.256,3.864,3.864,0,0,0-.808.382,1.965,1.965,0,0,0-.549.5,1.028,1.028,0,0,0-.2.616Zm5.185-8.193q-.02.191-.024.273a1.272,1.272,0,0,0,0,.143,1.08,1.08,0,0,0,.13.563.469.469,0,0,0,.437.215.441.441,0,0,0,.42-.211,1.271,1.271,0,0,0,.119-.614v-.184q0-.1-.007-.184h.648q-.007.1-.007.191v.171a1.318,1.318,0,0,0,.116.624.441.441,0,0,0,.423.208.477.477,0,0,0,.447-.211,1.147,1.147,0,0,0,.126-.587,3.591,3.591,0,0,0-.02-.4h.648q.007.082.01.164t0,.136a1.736,1.736,0,0,1-.338,1.146,1.112,1.112,0,0,1-.9.4,1.17,1.17,0,0,1-.491-.106.834.834,0,0,1-.368-.324H9.9a.859.859,0,0,1-.392.324,1.305,1.305,0,0,1-.515.106,1.046,1.046,0,0,1-.515-.116.951.951,0,0,1-.338-.314,1.371,1.371,0,0,1-.188-.464,2.655,2.655,0,0,1-.058-.566,3.187,3.187,0,0,1,.02-.389Zm7.859,1.1H17.49v10.342H16.425Z" transform="translate(1.638 28.669)"/></g><path class="c" d="M9.557,0A9.557,9.557,0,1,1,0,9.557,9.557,9.557,0,0,1,9.557,0Z" transform="translate(251.188 490.112)"/></g></svg>