<svg xmlns="http://www.w3.org/2000/svg" width="77" height="76" viewBox="0 0 77 76"><defs><style>.a{opacity:0.03;}.b{fill:#ff8316;}.c,.d{fill:#fff;}.c{stroke:#fff;stroke-width:0.8px;}.d{opacity:0.29;}</style></defs><g transform="translate(-1718 -120)"><g transform="translate(1504 -1144)"><g transform="translate(213.975 1264.392)"><g transform="translate(0.025 -0.392)"><ellipse class="a" cx="38.5" cy="38" rx="38.5" ry="38"/><g transform="translate(12 11.5)"><circle class="b" cx="26.5" cy="26.5" r="26.5"/><g transform="translate(11.181 11.582)"><path class="c" d="M542.3,98.3l-4.1-2.366a.494.494,0,0,0-.742.428V101.1a.494.494,0,0,0,.742.428l3.371-1.939a.387.387,0,0,0,.166-.44.227.227,0,0,0-.03-.067.371.371,0,0,0-.507-.136l-3,1.725V96.792l3.355,1.938-.219.127a.371.371,0,1,0,.371.642l.59-.341a.494.494,0,0,0,0-.856Z" transform="translate(-518.337 -92.928)"/><path class="c" d="M387.828,16.646h-12.28a2.341,2.341,0,0,0-2.337,2.338V26.1a2.341,2.341,0,0,0,2.338,2.338h2.7v2.208a.371.371,0,0,0,.582.3l3.617-2.512h5.384A2.341,2.341,0,0,0,390.17,26.1V18.985a2.341,2.341,0,0,0-2.342-2.339Zm1.6,9.451a1.6,1.6,0,0,1-1.6,1.6h-5.5a.371.371,0,0,0-.212.066l-3.13,2.174V28.065a.371.371,0,0,0-.371-.371h-3.067a1.6,1.6,0,0,1-1.6-1.6V18.985a1.6,1.6,0,0,1,1.6-1.6h12.279a1.6,1.6,0,0,1,1.6,1.6Z" transform="translate(-360.188 -16.646)"/><path class="c" d="M164.391,252.247h.415a3.592,3.592,0,0,0,3.588-3.588v-2.7a3.592,3.592,0,0,0-3.588-3.588h-.415a3.592,3.592,0,0,0-3.588,3.588v2.7a3.592,3.592,0,0,0,3.588,3.588Zm-2.846-6.289a2.849,2.849,0,0,1,2.846-2.846h.415a2.849,2.849,0,0,1,2.846,2.846v2.7a2.849,2.849,0,0,1-2.846,2.846h-.415a2.849,2.849,0,0,1-2.846-2.846Z" transform="translate(-155.667 -233.989)"/><path class="c" d="M35.97,512H34.527a.654.654,0,0,1-.654-.654.371.371,0,0,0-.728-.1l-.753.753H30.429l-.812-.913a.371.371,0,0,0-.539-.016l-.013.013a.371.371,0,0,0-.109.262A.654.654,0,0,1,28.3,512H26.838a4.372,4.372,0,0,0-4.366,4.367v6.28a.371.371,0,0,0,.371.371H39.965a.371.371,0,0,0,.371-.371v-6.28A4.372,4.372,0,0,0,35.97,512Zm-3.943.742-.333.971h-.579l-.333-.971Zm.431,6.487-1.067,1.247-1.036-1.241.934-4.781h.339Zm7.137,3.048H23.214v-5.909a3.629,3.629,0,0,1,3.624-3.625H28.3a1.4,1.4,0,0,0,1.194-.674l.44.495.634,1.7-.978,5.006a.371.371,0,0,0,.079.309l1.431,1.712a.371.371,0,0,0,.282.133h0a.371.371,0,0,0,.282-.13l1.466-1.713a.371.371,0,0,0,.084-.3l-.893-5.136.543-1.565.48-.48a1.4,1.4,0,0,0,1.135.649H35.97a3.629,3.629,0,0,1,3.624,3.626Z" transform="translate(-22.473 -492.608)"/><path class="c" d="M347.814,654.83h-2.2a.371.371,0,0,0,0,.742h2.2a.371.371,0,1,0,0-.742Z" transform="translate(-333.26 -631.134)"/></g></g><circle class="d" cx="18" cy="18" r="18" transform="translate(34 11)"/></g></g></g></g></svg>