<svg xmlns="http://www.w3.org/2000/svg" xmlns:xlink="http://www.w3.org/1999/xlink" width="77" height="76" viewBox="0 0 77 76"><defs><style>.a,.k{fill:#fff;}.b{opacity:0.03;}.c{fill:#ff8316;}.d{fill:#56d20e;}.e,.g,.h,.i{fill:none;}.e{stroke:#fff;}.e,.g{stroke-width:0.3px;}.f{fill:#f60;}.g,.h,.i{stroke:#707070;opacity:0.62;}.h{stroke-width:0.1px;}.i{stroke-width:0.7px;}.j{clip-path:url(#a);}.k{opacity:0.29;}</style><clipPath id="a"><rect class="a" width="49.5" height="30.339"/></clipPath></defs><g transform="translate(-472 -1291.288)"><g transform="translate(472 1291.288)"><ellipse class="b" cx="38.5" cy="38" rx="38.5" ry="38"/><g transform="translate(14 21)"><rect class="c" width="49.5" height="4.79"/><rect class="a" width="49.5" height="30.339" transform="translate(0 3.194)"/><g transform="translate(4.59 7.984)"><g transform="translate(0.2)"><circle class="d" cx="1.198" cy="1.198" r="1.198" transform="translate(0 0)"/><path class="e" d="M4273.45,2064.5l.441.487,1-.706" transform="translate(-4273.16 -2063.187)"/></g><g transform="translate(0.2 5.589)"><circle class="d" cx="1.198" cy="1.198" r="1.198" transform="translate(0 0)"/><path class="e" d="M4273.45,2064.5l.441.487,1-.706" transform="translate(-4273.16 -2063.08)"/></g><g transform="translate(0.2 11.976)"><circle class="d" cx="1.198" cy="1.198" r="1.198" transform="translate(0 0)"/><path class="e" d="M4273.45,2064.5l.441.487,1-.706" transform="translate(-4273.16 -2063.261)"/></g><path class="d" d="M1.227,0A1.227,1.227,0,1,1,0,1.227,1.227,1.227,0,0,1,1.227,0Z" transform="translate(0 18.363)"/><path class="e" d="M4273.45,2064.5l.441.487,1-.706" transform="translate(-4272.99 -2044.717)"/></g><rect class="f" width="27.944" height="15.169" transform="translate(19.161 7.984)"/><path class="a" d="M4.964,2.513.847.079A.558.558,0,0,0,0,.562V5.43a.561.561,0,0,0,.847.483L4.964,3.48a.561.561,0,0,0,0-.966Z" transform="translate(30.085 12.652)"/><path class="g" d="M4280.37,2064.14h4.62" transform="translate(-4272.304 -2055.773)"/><path class="h" d="M4280.37,2064.14h2.31" transform="translate(-4272.304 -2054.903)"/><path class="h" d="M4280.37,2064.14h2.31" transform="translate(-4272.304 -2048.815)"/><path class="h" d="M4280.37,2064.14h2.31" transform="translate(-4272.304 -2042.727)"/><path class="h" d="M4280.37,2064.14h2.31" transform="translate(-4272.304 -2036.638)"/><path class="g" d="M4280.37,2064.14h4.62" transform="translate(-4272.304 -2049.685)"/><path class="g" d="M4280.37,2064.14h4.62" transform="translate(-4272.304 -2043.596)"/><path class="g" d="M4280.37,2064.14h4.62" transform="translate(-4272.304 -2037.508)"/><path class="i" d="M4280.37,2064.14h15.95" transform="translate(-4260.998 -2038.378)"/><path class="h" d="M4280.37,2064.14h12.23" transform="translate(-4260.998 -2036.638)"/><path class="h" d="M4280.37,2064.14h16.658" transform="translate(-4260.998 -2035.334)"/></g><g class="j" transform="translate(14 23)"><circle class="k" cx="13.972" cy="13.972" r="13.972" transform="translate(23.952 -10.379)"/><rect class="c" width="49.5" height="4.79" transform="translate(0 -3.194)"/></g></g></g></svg>