<svg xmlns="http://www.w3.org/2000/svg" width="27.672" height="26.711" viewBox="0 0 27.672 26.711"><defs><style>.a{fill:#ff8316;}.b,.c{fill:#fff;}.c{opacity:0.29;}</style></defs><g transform="translate(-57 -490.289)"><g transform="translate(56.869 493.903)"><ellipse class="a" cx="12" cy="11.5" rx="12" ry="11.5" transform="translate(0.131 0.097)"/><path class="b" d="M210.112,45.334c1.246,0,3.168-1.413,4.521-2.813,1.1-1.137,2.941-3.411,2.941-5.861a4.359,4.359,0,0,0-7.462-3.059,4.359,4.359,0,0,0-7.462,3.059c0,2.257,1.837,4.552,2.932,5.719C206.861,43.742,208.815,45.334,210.112,45.334Zm-3.448-11.568A3.079,3.079,0,0,1,209.3,35.2c.151.31.466.848.81.848s.659-.538.81-.848a3.079,3.079,0,0,1,2.637-1.436,2.87,2.87,0,0,1,2.553,2.894c0,1.326-.887,3.005-2.433,4.607a10.388,10.388,0,0,1-3.566,2.606,11,11,0,0,1-3.583-2.754c-1.515-1.622-2.419-3.289-2.419-4.459a2.87,2.87,0,0,1,2.556-2.892Z" transform="translate(-198.462 -27.016)"/></g><path class="c" d="M9.557,0A9.557,9.557,0,1,1,0,9.557,9.557,9.557,0,0,1,9.557,0Z" transform="translate(65.558 490.289)"/></g></svg>