<svg xmlns="http://www.w3.org/2000/svg" width="27.26" height="26.888" viewBox="0 0 27.26 26.888"><defs><style>.a{fill:#ff8316;}.b,.c{fill:#fff;}.b{stroke:#fff;stroke-width:0.4px;}.c{opacity:0.29;}</style></defs><g transform="translate(-122 -120)"><g transform="translate(-24 -370.112)"><g transform="translate(146.089 495.033)"><ellipse class="a" cx="11.5" cy="11" rx="11.5" ry="11" transform="translate(-0.089 -0.033)"/><path class="b" d="M10.844.891a1.6,1.6,0,0,0-2.868,0,1.6,1.6,0,0,0-2.319,1.36A1.6,1.6,0,0,0,3.5,3.761V11.1a3.541,3.541,0,0,0,1.433,3.189v1.646a1.255,1.255,0,0,0,1.254,1.254h4.3a1.255,1.255,0,0,0,1.254-1.254V14.246a3.008,3.008,0,0,0,.758-.862A18.5,18.5,0,0,1,15.456,9.62c2.254-2.261.565-5.169-2.286-3.178V2.328A1.606,1.606,0,0,0,10.844.891Zm-.181,15.047a.181.181,0,0,1-.179.179h-4.3a.181.181,0,0,1-.179-.179V14.786a8.253,8.253,0,0,0,2.328.257,8.122,8.122,0,0,0,2.328-.251ZM14.7,8.861a19.816,19.816,0,0,0-3.125,3.976c-.563.951-1.572,1.132-3.236,1.132-2.322,0-3.761-.479-3.761-2.865V3.761a.537.537,0,1,1,1.075,0V7.343a.537.537,0,0,0,1.075,0V2.328a.537.537,0,1,1,1.075,0V7.343a.537.537,0,1,0,1.075,0V1.612a.537.537,0,1,1,1.075,0V7.343a.537.537,0,1,0,1.075,0V2.328a.537.537,0,1,1,1.075,0c.115,5.144-.266,5.563.332,5.811.486.2.742-.332,1.012-.543C15.127,5.871,16.265,7.338,14.7,8.861Z" transform="translate(2.186 1.94)"/></g><path class="c" d="M9.557,0A9.557,9.557,0,1,1,0,9.557,9.557,9.557,0,0,1,9.557,0Z" transform="translate(154.146 490.112)"/></g></g></svg>