<svg xmlns="http://www.w3.org/2000/svg" width="28.302" height="28.793" viewBox="0 0 28.302 28.793"><defs><style>.a{fill:#ff8316;}.b,.c{fill:#fff;}.b{stroke:#fff;stroke-linecap:round;stroke-linejoin:round;stroke-width:0.8px;}.c{opacity:0.29;}</style></defs><g transform="translate(-1884 -72)"><g transform="translate(1642 -469.207)"><g transform="translate(241.709 546.607)"><circle class="a" cx="11.5" cy="11.5" r="11.5" transform="translate(0.291 0.393)"/><g transform="translate(2.614 4.78)"><path class="b" d="M17.11,59.345H15.96v-.392a.338.338,0,0,0-.244-.338,9.527,9.527,0,0,0-2.438-.311,6.289,6.289,0,0,0-4.559,1.691A6.223,6.223,0,0,0,4.16,58.3a9.527,9.527,0,0,0-2.438.311.338.338,0,0,0-.244.338v.389H.338A.338.338,0,0,0,0,59.68v10.8a.337.337,0,0,0,.5.294A11.924,11.924,0,0,1,8.641,70.1h.081a.338.338,0,0,0,.081,0,11.722,11.722,0,0,1,8.137.676.338.338,0,0,0,.507-.291v-10.8a.338.338,0,0,0-.337-.34ZM.676,69.944V60.021h.808V68.5a.338.338,0,0,0,.389.338,14.8,14.8,0,0,1,2.114-.169,8.773,8.773,0,0,1,2.888.436,12.433,12.433,0,0,0-6.2.839ZM3.987,68a14.88,14.88,0,0,0-1.84.118v-8.9A9.328,9.328,0,0,1,4.153,59a5.522,5.522,0,0,1,4.221,1.657l.01,8.425A7.906,7.906,0,0,0,3.987,68ZM9.06,60.654A5.572,5.572,0,0,1,13.281,59a9.367,9.367,0,0,1,2.006.223v8.9A14.875,14.875,0,0,0,13.457,68a7.972,7.972,0,0,0-4.4,1.079Zm7.708,9.29a12.436,12.436,0,0,0-6.213-.835,8.794,8.794,0,0,1,2.9-.436,14.8,14.8,0,0,1,2.127.166.338.338,0,0,0,.389-.338v-8.48h.808Z" transform="translate(0 -58.303)"/></g></g><path class="c" d="M9.557,0A9.557,9.557,0,1,1,0,9.557,9.557,9.557,0,0,1,9.557,0Z" transform="translate(251.188 541.207)"/></g></g></svg>