<svg xmlns="http://www.w3.org/2000/svg" xmlns:xlink="http://www.w3.org/1999/xlink" width="339.625" height="102" viewBox="0 0 339.625 102"><defs><style>.a{fill:#f60;}.b{clip-path:url(#a);}.c,.d,.e{fill:#fff;}.d{opacity:0.29;}.e{font-size:25px;font-family:Montserrat-Regular, Montserrat;letter-spacing:0.044em;}</style><clipPath id="a"><path class="a" d="M41.625,0H298c22.989,0,41.625,19.7,41.625,44V58c0,24.3-18.636,44-41.625,44H41.625a39.789,39.789,0,0,1-11.242-1.632c-2.073-.6,4.519-11.5,2.235-12.62-2.042-1-12.947,7.722-15.076,6.145A44.6,44.6,0,0,1,0,58V44C0,19.7,18.636,0,41.625,0Z" transform="translate(-178 -365)"/></clipPath></defs><g class="b" transform="translate(178 365)"><rect class="a" width="340" height="102" rx="44" transform="translate(-178 -365)"/><path class="c" d="M57.447,12.068a33.492,33.492,0,0,0-52.7,40.4L0,69.817l17.751-4.66a33.38,33.38,0,0,0,16,4.072h.015c18.445,0,33.8-15.021,33.8-33.482a33.613,33.613,0,0,0-10.12-23.678ZM33.768,63.588a27.779,27.779,0,0,1-14.177-3.876l-1.01-.6L8.054,61.868,10.859,51.6,10.2,50.542a27.883,27.883,0,1,1,51.716-14.8A28.14,28.14,0,0,1,33.768,63.588ZM49.031,42.745c-.829-.422-4.947-2.443-5.716-2.715-.769-.287-1.327-.422-1.885.422s-2.157,2.715-2.654,3.288c-.483.558-.98.633-1.81.211C32.049,41.493,28.821,39.562,25.579,34c-.86-1.478.86-1.372,2.458-4.57a1.55,1.55,0,0,0-.075-1.463c-.211-.422-1.885-4.54-2.579-6.214-.679-1.629-1.372-1.4-1.885-1.433-.483-.03-1.041-.03-1.6-.03a3.1,3.1,0,0,0-2.232,1.041,9.4,9.4,0,0,0-2.926,6.983c0,4.117,3,8.1,3.408,8.657.422.558,5.9,9,14.3,12.639,5.309,2.292,7.39,2.489,10.044,2.1,1.614-.241,4.947-2.021,5.641-3.982a7,7,0,0,0,.483-3.982C50.419,43.363,49.86,43.152,49.031,42.745Z" transform="translate(-141.048 -348.424)"/><path class="d" d="M46.593,0A46.986,46.986,0,1,1,0,46.984,46.79,46.79,0,0,1,46.593,0Z" transform="translate(-184 -385.969)"/><text class="e" transform="translate(-47 -326.035)"><tspan x="0" y="24">Tanya Kami</tspan></text></g></svg>